<svg aria-hidden="true" style="position: absolute; width: 0; height: 0; overflow: hidden;" version="1.1" xmlns="http://www.w3.org/2000/svg" xmlns:xlink="http://www.w3.org/1999/xlink">
<defs>
<symbol id="icon-button" viewBox="0 0 27 21">
<path d="M1.66602 1L24.9994 1" stroke-width="2" stroke-linecap="round"/>
<line x1="1" y1="6.66699" x2="25.6667" y2="6.66699"  stroke-width="2" stroke-linecap="round"/>
<line x1="1" y1="20" x2="25.6667" y2="20"  stroke-width="2" stroke-linecap="round"/>
<line x1="1" y1="13.333" x2="25.6667" y2="13.333"  stroke-width="2" stroke-linecap="round"/>
</symbol>
<symbol id="icon-youtube-icon" viewBox="0 0 32 32">
<path d="M15.796 12.001c0.4 0 0.6-0.4 0.6-1v-2.8c0-0.6-0.2-1-0.6-1s-0.6 0.4-0.6 1v2.8c0 0.6 0.2 1 0.6 1zM14.196 23.801c-0.2 0.4-0.6 0.6-0.8 0.6s-0.2 0-0.2-0.2v-5.4h-1.2v5.2c0 0.4 0 0.8 0.2 1 0.2 0.4 0.4 0.4 0.8 0.4s0.8-0.2 1.4-0.8v0.8h1.2v-6.6h-1.4v5zM7.596 17.801h1.4v7.6h1.4v-7.6h1.4v-1.4h-4.2v1.4zM18.795 18.601c-0.4 0-0.8 0.4-1.2 0.8v-3h-1.2v8.8h1.2v-0.6c0.4 0.4 0.8 0.8 1.2 0.8s0.8-0.2 1-0.8c0-0.2 0.2-0.8 0.2-1.4v-2.6c0-0.6 0-1-0.2-1.4-0.2-0.2-0.4-0.6-1-0.6zM18.795 23.401c0 0.6-0.2 0.8-0.6 0.8-0.2 0-0.4 0-0.6-0.2v-4c0.2-0.2 0.4-0.2 0.6-0.2 0.4 0 0.6 0.4 0.6 1v2.6zM22.595 18.601c-0.6 0-1 0.2-1.4 0.6-0.2 0.4-0.4 0.8-0.4 1.6v2.4c0 0.8 0.2 1.2 0.4 1.6 0.4 0.4 0.8 0.6 1.4 0.6s1.2-0.2 1.4-0.8c0.2-0.2 0.2-0.4 0.2-0.8v-1h-1.2v0.8c0 0.4-0.2 0.4-0.6 0.4s-0.6-0.4-0.6-1v-1.2h2.4v-1.4c0-0.8-0.2-1.2-0.4-1.6 0 0.2-0.6-0.2-1.2-0.2zM23.195 21.201h-1.2v-0.6c0-0.6 0.2-1 0.6-1s0.6 0.4 0.6 1v0.6z"></path>
<path d="M-0.003 0v32h31.997v-32h-31.997zM18.596 6.2h1.2v5.4c0 0.2 0 0.4 0.2 0.4s0.4-0.2 0.8-0.6v-5.2h1.2v6.6h-1.2v-0.6c-0.4 0.6-1 0.8-1.4 0.8s-0.6-0.2-0.8-0.4c0-0.2-0.2-0.6-0.2-1v-5.4h0.2zM13.996 8.4c0-0.6 0-1.2 0.4-1.6s0.8-0.6 1.4-0.6c0.6 0 1 0.2 1.4 0.6 0.2 0.4 0.4 0.8 0.4 1.6v2.4c0 0.8-0.2 1.2-0.4 1.6-0.4 0.4-0.8 0.6-1.4 0.6s-1-0.2-1.4-0.6c-0.4-0.4-0.4-0.8-0.4-1.6v-2.4zM10.596 4l1 3.6 1-3.6h1.4l-1.6 5.4v3.6h-1.4v-3.6c-0.2-0.8-0.4-1.6-0.8-3-0.4-0.8-0.6-1.6-1-2.4h1.4zM25.595 25.8c-0.2 1-1.2 1.8-2.2 2-2.4 0.2-4.999 0.2-7.399 0.2s-4.999 0-7.399-0.2c-1-0.2-2-0.8-2.2-2-0.4-1.6-0.4-3.2-0.4-4.8 0-1.4 0-3 0.4-4.6 0.2-1 1.2-1.8 2.2-2 2.4-0.2 4.999-0.2 7.399-0.2s5 0 7.399 0.2c1 0.2 2 0.8 2.2 2 0.4 1.6 0.4 3.2 0.4 4.6 0 1.6 0 3.2-0.4 4.8z"></path>
</symbol>
<symbol id="icon-close-icon" viewBox="0 0 32 32">
<path d="M31.708 25.708c-0-0-0-0-0-0l-9.708-9.708 9.708-9.708c0-0 0-0 0-0 0.105-0.105 0.18-0.227 0.229-0.357 0.133-0.356 0.057-0.771-0.229-1.057l-4.586-4.586c-0.286-0.286-0.702-0.361-1.057-0.229-0.13 0.048-0.252 0.124-0.357 0.228 0 0-0 0-0 0l-9.708 9.708-9.708-9.708c-0-0-0-0-0-0-0.105-0.104-0.227-0.18-0.357-0.228-0.356-0.133-0.771-0.057-1.057 0.229l-4.586 4.586c-0.286 0.286-0.361 0.702-0.229 1.057 0.049 0.13 0.124 0.252 0.229 0.357 0 0 0 0 0 0l9.708 9.708-9.708 9.708c-0 0-0 0-0 0-0.104 0.105-0.18 0.227-0.229 0.357-0.133 0.355-0.057 0.771 0.229 1.057l4.586 4.586c0.286 0.286 0.702 0.361 1.057 0.229 0.13-0.049 0.252-0.124 0.357-0.229 0-0 0-0 0-0l9.708-9.708 9.708 9.708c0 0 0 0 0 0 0.105 0.105 0.227 0.18 0.357 0.229 0.356 0.133 0.771 0.057 1.057-0.229l4.586-4.586c0.286-0.286 0.362-0.702 0.229-1.057-0.049-0.13-0.124-0.252-0.229-0.357z"></path>
</symbol>
<!-- <symbol id="icon-cse-icon" viewBox="0 0 32 32">
<path stroke-linejoin="round" stroke-linecap="round" stroke-miterlimit="4" stroke-width="2" d="M12.227 19.773l7.547-7.547M19.773 19.773l-7.547-7.547M12 29.333h8c6.667 0 9.333-2.667 9.333-9.333v-8c0-6.667-2.667-9.333-9.333-9.333h-8c-6.667 0-9.333 2.667-9.333 9.333v8c0 6.667 2.667 9.333 9.333 9.333z"></path>
</symbol> -->
<symbol id="icon-witter-icon" viewBox="0 0 32 32">
<path d="M30.717 0h-29.44c-0.708 0-1.28 0.572-1.28 1.28v29.44c0 0.708 0.572 1.28 1.28 1.28h29.44c0.708 0 1.28-0.572 1.28-1.28v-29.44c0-0.708-0.572-1.28-1.28-1.28zM24.609 11.588c0.012 0.188 0.012 0.384 0.012 0.576 0 5.872-4.472 12.636-12.644 12.636-2.52 0-4.856-0.732-6.824-1.992 0.36 0.040 0.704 0.056 1.072 0.056 2.080 0 3.992-0.704 5.516-1.896-1.952-0.040-3.592-1.32-4.152-3.080 0.684 0.1 1.3 0.1 2.004-0.080-1.005-0.204-1.909-0.75-2.557-1.545s-1.001-1.79-0.999-2.815v-0.056c0.588 0.332 1.28 0.536 2.004 0.564-0.609-0.406-1.108-0.955-1.453-1.6s-0.526-1.365-0.527-2.096c0-0.828 0.216-1.584 0.604-2.24 1.116 1.373 2.508 2.497 4.086 3.297s3.307 1.259 5.074 1.347c-0.628-3.020 1.628-5.464 4.34-5.464 1.28 0 2.432 0.536 3.244 1.4 1.004-0.188 1.964-0.564 2.82-1.068-0.332 1.028-1.028 1.896-1.952 2.444 0.896-0.096 1.76-0.344 2.56-0.692-0.604 0.888-1.36 1.676-2.228 2.304z"></path>
</symbol>
<symbol id="icon-google-icon" viewBox="0 0 32 32">
<path d="M30.717 0h-29.44c-0.708 0-1.28 0.572-1.28 1.28v29.44c0 0.708 0.572 1.28 1.28 1.28h29.44c0.708 0 1.28-0.572 1.28-1.28v-29.44c0-0.708-0.572-1.28-1.28-1.28zM17.457 20.432c-1.756 2.472-5.284 3.192-8.036 2.132-2.76-1.052-4.72-3.968-4.484-6.94 0.060-3.636 3.408-6.824 7.044-6.7 1.744-0.080 3.384 0.676 4.72 1.744-0.572 0.648-1.16 1.272-1.792 1.852-1.604-1.108-3.888-1.424-5.492-0.144-2.296 1.588-2.4 5.336-0.192 7.044 2.148 1.948 6.208 0.98 6.804-2.004-1.344-0.020-2.696 0-4.040-0.044-0.004-0.804-0.008-1.604-0.004-2.408 2.248-0.008 4.5-0.012 6.752 0.008 0.132 1.892-0.12 3.9-1.28 5.46zM27.157 16.98c-0.672 0.008-1.344 0.012-2.016 0.016-0.008 0.672-0.012 1.344-0.012 2.016h-2.012c-0.008-0.672-0.008-1.34-0.012-2.012-0.672-0.008-1.344-0.012-2.016-0.020v-2.004c0.672-0.008 1.344-0.012 2.016-0.012 0.004-0.672 0.012-1.344 0.016-2.016h2.008l0.012 2.016c0.672 0.008 1.344 0.008 2.016 0.012v2.004z"></path>
</symbol>
<symbol id="icon-facebook-icon" viewBox="0 0 32 32">
<path d="M0 0.104v31.793h31.997v-31.793h-31.997zM23.017 4.253c0.232-0.005 0.474 0.003 0.725 0.019 0.919 0.001 1.879 0.084 2.832 0.167l-0.103 3.765h-2.558c-1.199-0.026-1.633 0.436-1.672 1.781v2.957h4.333l-0.172 4.032h-4.162v11.226h-4.228v-11.226h-2.935v-4.032h2.935v-3.462c0-2.496 1.062-4.085 3.154-4.89 0.537-0.21 1.154-0.323 1.851-0.338z"></path>
</symbol>
<symbol id="icon-search-icon" viewBox="0 0 32 32">
<path d="M13.685 27.368c3.036-0.001 5.985-1.017 8.377-2.887l7.52 7.519 2.419-2.419-7.52-7.519c1.871-2.392 2.889-5.341 2.889-8.378 0-7.545-6.139-13.684-13.685-13.684s-13.685 6.139-13.685 13.684 6.139 13.684 13.685 13.684zM13.685 3.421c5.66 0 10.264 4.603 10.264 10.263s-4.603 10.263-10.264 10.263c-5.66 0-10.264-4.603-10.264-10.263s4.603-10.263 10.264-10.263z"></path>
</symbol>
<symbol id="icon-Vectorgoogle-icon1" viewBox="0 0 32 32">
<path d="M30.717 0h-29.44c-0.708 0-1.28 0.572-1.28 1.28v29.44c0 0.708 0.572 1.28 1.28 1.28h29.44c0.708 0 1.28-0.572 1.28-1.28v-29.44c0-0.708-0.572-1.28-1.28-1.28zM17.457 20.432c-1.756 2.472-5.284 3.192-8.036 2.132-2.76-1.052-4.72-3.968-4.484-6.94 0.060-3.636 3.408-6.824 7.044-6.7 1.744-0.080 3.384 0.676 4.72 1.744-0.572 0.648-1.16 1.272-1.792 1.852-1.604-1.108-3.888-1.424-5.492-0.144-2.296 1.588-2.4 5.336-0.192 7.044 2.148 1.948 6.208 0.98 6.804-2.004-1.344-0.020-2.696 0-4.040-0.044-0.004-0.804-0.008-1.604-0.004-2.408 2.248-0.008 4.5-0.012 6.752 0.008 0.132 1.892-0.12 3.9-1.28 5.46zM27.157 16.98c-0.672 0.008-1.344 0.012-2.016 0.016-0.008 0.672-0.012 1.344-0.012 2.016h-2.012c-0.008-0.672-0.008-1.34-0.012-2.012-0.672-0.008-1.344-0.012-2.016-0.020v-2.004c0.672-0.008 1.344-0.012 2.016-0.012 0.004-0.672 0.012-1.344 0.016-2.016h2.008l0.012 2.016c0.672 0.008 1.344 0.008 2.016 0.012v2.004z"></path>
</symbol>
<symbol id="icon-mobile-menu" viewBox="0 0 32 32">
<path d="M0 2h32v4h-32zM0 8h32v4h-32zM0 14h32v4h-32zM0 20h32v4h-32zM0 26h32v4h-32z"></path>
</symbol>
<symbol id="icon-polygon" viewBox="0 0 32 32">
<path stroke-linejoin="miter" stroke-linecap="butt" stroke-miterlimit="4" stroke-width="1.3333" d="M30.089 2.331l-14.089 28.179-14.089-28.179 14.089 10.958 14.089-10.958z"></path>
</symbol>
</defs>
</svg>
